{
	"asset": {
		"version": "2.0",
		"generator": "THREE.GLTFExporter"
	},
	"scenes": [{
		"nodes": [0],
		"name": "AuxScene"
	}],
	"scene": 0,
	"nodes": [{
		"name": "10004=IfcDiscreteAccessory.obj",
		"mesh": 0
	}],
	"bufferViews": [{
		"buffer": 0,
		"byteOffset": 0,
		"byteLength": 432,
		"target": 34962,
		"byteStride": 12
	}, {
		"buffer": 0,
		"byteOffset": 432,
		"byteLength": 432,
		"target": 34962,
		"byteStride": 12
	}, {
		"buffer": 0,
		"byteOffset": 864,
		"byteLength": 72,
		"target": 34963
	}],
	"buffers": [{
		"byteLength": 936,
		"uri": "data:application/octet-stream;base64,"
	}],
	"accessors": [{
		"bufferView": 0,
		"componentType": 5126,
		"count": 36,
		"max": [21715, -7164.68017578125, 15369.7001953125],
		"min": [21525, -7335, 15350.2998046875],
		"type": "VEC3"
	}, {
		"bufferView": 1,
		"componentType": 5126,
		"count": 36,
		"max": [1, 0.9998002648353577, 0.9998000264167786],
		"min": [-1, -0.9998002648353577, -0.9998000264167786],
		"type": "VEC3"
	}, {
		"bufferView": 2,
		"componentType": 5123,
		"count": 36,
		"max": [35],
		"min": [0],
		"type": "SCALAR"
	}],
	"materials": [{
		"pbrMetallicRoughness": {
			"baseColorFactor": [1, 0, 0, 1],
			"metallicFactor": 0.5,
			"roughnessFactor": 0.5
		}
	}],
	"meshes": [{
		"primitives": [{
			"mode": 4,
			"attributes": {
				"POSITION": 0,
				"NORMAL": 1
			},
			"indices": 2,
			"material": 0
		}]
	}]
}