{"asset":{"version":"2.0","generator":"THREE.GLTFExporter"},"scenes":[{"nodes":[0]}],"scene":0,"nodes":[{"matrix":[0.001,0,0,0,0,0.001,0,0,0,0,0.001,0,0,0,0,1],"name":"Node","mesh":0}],"bufferViews":[{"buffer":0,"byteOffset":0,"byteLength":216,"target":34962,"byteStride":12},{"buffer":0,"byteOffset":216,"byteLength":192,"target":34963}],"buffers":[{"byteLength":408,"uri":"data:application/octet-stream;base64,"}],"accessors":[{"bufferView":0,"componentType":5126,"count":18,"max":[22450,12170,2162],"min":[12550,7250,762],"type":"VEC3"},{"bufferView":1,"componentType":5123,"count":96,"max":[17],"min":[0],"type":"SCALAR"}],"materials":[{"pbrMetallicRoughness":{"baseColorFactor":[0.5,0.5,0.5,1],"metallicFactor":0,"roughnessFactor":1},"name":"default"}],"meshes":[{"primitives":[{"mode":4,"attributes":{"POSITION":0},"indices":1,"material":0}]}]}